# xmcd
#
# Track frame offsets: 
#        183
#        9480
#        21035
#        38645
#        50083
#        65730
#        90170
#        102620
#        124050
#        139178
#        148965
#        164410
#        178128
#        193085
#        206038
#        218513
#        230228
#        266970
#        281720
#        297283
#        309298
#        321585
#
# Disc length: 4736 seconds
#
# Revision: 3
# Processed by: cddbd v1.5.2PL0 Copyright (c) Steve Scherf et al.
# Submitted via: ExactAudioCopy v1.3
#
DISCID=60127e16
DTITLE=Various Artist - The Bluesmen
DYEAR=1992
DGENRE=Blues
TTITLE0=Sonny Terry, Brownie McGhee - I Love You Baby
TTITLE1=Sonny Terry, Brownie McGhee - Cornbread, Peas And Black Molass
TTITLE1=es
TTITLE2=Sonny Terry, Brownie McGhee - That's How I Feel
TTITLE3=Sonny Terry, Brownie McGhee - Gone But Not Forgotten
TTITLE4=Sonny Terry, Brownie McGhee - Treated Wrong
TTITLE5=Sonny Terry, Brownie McGhee - Brownie's Blues
TTITLE6=Sonny Terry, Brownie McGhee - Southern Train
TTITLE7=Sonny Terry, Brownie McGhee - Just A Dream
TTITLE8=Sonny Terry, Brownie McGhee - Sonny's Blues
TTITLE9=Sonny Terry, Brownie McGhee - You'd Better Mind
TTITLE10=Sonny Terry, Brownie McGhee - Change The Lock On My Door
TTITLE11=Sonny Terry, Brownie McGhee - Climbing On The Top Of The Hill
TTITLE12=Big Bill Broonzy - When Do I Get To Be Called A Man?
TTITLE13=Big Bill Broonzy - Mindin' My Own Business
TTITLE14=Big Bill Broonzy - Partnership Woman
TTITLE15=Big Bill Broonzy - St. Louis Blues
TTITLE16=Big Bill Broonzy - Southern Saga (Inc. Joe Turner Blues)
TTITLE17=Big Bill Broonzy - Southbound Train
TTITLE18=Big Bill Broonzy - Saturday Evening
TTITLE19=Big Bill Broonzy - Glory Of Love
TTITLE20=Big Bill Broonzy - It Feels So Good
TTITLE21=Big Bill Broonzy - When The Sun Goes Down - Going Down This R
TTITLE21=oad Feeling Bad
EXTD=Castle MATCD250, 1992
EXTT0=
EXTT1=
EXTT2=
EXTT3=
EXTT4=
EXTT5=
EXTT6=
EXTT7=
EXTT8=
EXTT9=
EXTT10=
EXTT11=
EXTT12=
EXTT13=
EXTT14=
EXTT15=
EXTT16=
EXTT17=
EXTT18=
EXTT19=
EXTT20=
EXTT21=
PLAYORDER=
